<svg width="1000" height="250" viewBox="0 0 1000 250" fill="none" xmlns="http://www.w3.org/2000/svg">
<g transform="translate(50, 25) scale(0.4)">
    <path d="M140 430V150C140 105.817 175.817 70 220 70H260C326.274 70 380 123.726 380 190C380 205.9 377.1 221.1 371.8 235"
          stroke="#2563EB" stroke-width="56" stroke-linecap="round" stroke-linejoin="round"/>
    <circle cx="390" cy="275" r="36" fill="#00DC82"/>
</g>

<g fill="#0F172A">
    <path d="M260 75H300C338 75 365 102 365 140C365 178 338 205 300 205H285V245H260V75ZM285 182H300C325 182 340 165 340 140C340 115 325 98 300 98H285V182Z"/>
    <path d="M375 160C375 135 392 118 417 118C442 118 459 135 459 160C459 185 442 202 417 202C392 202 375 185 375 160ZM434 160C434 148 427 139 417 139C407 139 400 148 400 160C400 172 407 181 417 181C427 181 434 172 434 160Z"/>
    <path d="M470 120H495V200H470V120ZM470 95H495V75H470V95Z"/>
    <path d="M515 120H540V135C545 125 555 118 570 118C590 118 600 130 600 150V200H575V152C575 142 570 138 560 138C550 138 540 145 540 155V200H515V120Z"/>
    <path d="M620 100V120H610V140H620V185C620 195 625 200 640 200H650V180H642C642 180 645 180 645 175V140H660V120H645V100H620Z"/>
    <path d="M680 140C680 102 710 75 750 75C790 75 820 102 820 140C820 178 790 205 750 205C710 205 680 178 680 140ZM795 140C795 115 775 98 750 98C725 98 705 115 705 140C705 165 725 182 750 182C775 182 795 165 795 140Z"/>
    <path d="M840 120H865V135C870 125 880 118 895 118C915 118 925 130 925 150V200H900V152C900 142 895 138 885 138C875 138 865 145 865 155V200H840V120Z"/>
    <path d="M940 160C940 135 957 118 982 118C1005 118 1022 132 1022 158H965C966 170 972 181 985 181C995 181 1000 175 1002 170L1022 175C1018 190 1005 202 985 202C960 202 940 185 940 160ZM982 138C972 138 966 145 965 152H1000C1000 145 992 138 982 138Z"/>
</g>
</svg>
